<svg width="22" height="21" viewBox="0 0 22 21" fill="none" xmlns="http://www.w3.org/2000/svg">
<path opacity="0.5" d="M18.8883 7.22992C19.1622 9.64043 18.983 11.9528 19.2639 13.809C19.5504 15.701 20.2192 17.0126 21.1393 17.4994C21.582 17.7167 21.9171 17.851 21.7892 18.1134C21.6107 18.4797 20.3906 19.1348 18.472 19.6259C15.2152 20.614 11.0563 20.0327 7.26004 17.9333C3.49684 15.8515 0.973132 12.7843 0.216224 10.0471C-0.291562 8.4464 0.0234416 6.57696 1.93159 4.46439C3.21237 3.04615 5.04227 1.73461 7.07454 0.799568C10.3927 -0.513583 13.5978 -0.101198 15.6547 1.25256C17.7746 2.64762 18.6129 4.80231 18.8883 7.22992Z" fill="#FF8C61"/>
</svg>
