<svg width="26" height="27" viewBox="0 0 26 27" fill="none" xmlns="http://www.w3.org/2000/svg">
<path opacity="0.5" d="M1.42643 15.5979C1.58695 12.5117 2.29633 9.64371 2.3319 7.25258C2.36805 4.81536 1.80228 3.02723 0.74816 2.22294C0.237271 1.85724 -0.155669 1.61839 0.0599955 1.31542C0.360966 0.892549 2.03125 0.324871 4.54471 0.109411C8.84386 -0.450219 13.9477 1.15088 18.2783 4.58355C22.5709 7.98717 25.0999 12.3695 25.4779 15.9673C25.7808 18.0849 24.9936 20.3679 22.1537 22.6228C20.2475 24.1367 17.6736 25.4016 14.9243 26.151C10.4801 27.1063 6.53923 25.9171 4.23809 23.7855C1.86646 21.5887 1.2643 18.7059 1.42643 15.5979Z" fill="#93C4A6"/>
</svg>
