<svg width="21" height="24" viewBox="0 0 21 24" fill="none" xmlns="http://www.w3.org/2000/svg">
<path opacity="0.5" d="M13.6 19.4228C11.1293 19.8819 8.72681 19.8656 6.82938 20.2915C4.8954 20.7258 3.58896 21.5127 3.15317 22.4989C2.96103 22.9723 2.84678 23.3283 2.56627 23.2153C2.17475 23.0577 1.40873 21.8448 0.761085 19.8983C-0.497767 16.6052 -0.200944 12.2655 1.69095 8.18954C3.56708 4.14904 6.55197 1.31728 9.32495 0.335217C10.9418 -0.306403 12.8965 -0.117491 15.2187 1.69981C16.7777 2.91961 18.2666 4.71458 19.3812 6.74617C20.9805 10.0788 20.7885 13.4207 19.54 15.6449C18.2534 17.9373 16.0882 18.9609 13.6 19.4228Z" fill="#93C4A6"/>
</svg>
