<svg width="19" height="25" viewBox="0 0 19 25" fill="none" xmlns="http://www.w3.org/2000/svg">
<path opacity="0.5" d="M15.1917 16.1235C13.2711 17.6057 11.1998 18.6493 9.75713 19.8505C8.28667 21.075 7.51064 22.3262 7.57039 23.3654C7.61371 23.8567 7.6723 24.2129 7.38155 24.2393C6.97576 24.2762 5.78366 23.5714 4.37032 22.1841C1.83904 19.909 0.183593 16.0498 0.0146608 11.715C-0.152196 7.4176 1.16569 3.6706 3.11581 1.60609C4.2225 0.343038 5.98504 -0.355158 8.78029 0.183873C10.6567 0.545557 12.7261 1.43229 14.5781 2.68707C17.4193 4.84631 18.7256 7.80203 18.6321 10.2627C18.5358 12.7987 17.1262 14.6312 15.1917 16.1235Z" fill="#FF8C61"/>
</svg>
