<svg width="297" height="386" viewBox="0 0 297 386" fill="none" xmlns="http://www.w3.org/2000/svg">
<path opacity="0.5" d="M241.57 256.393C211.028 279.961 178.091 296.557 155.149 315.659C131.766 335.13 119.426 355.027 120.376 371.552C121.065 379.365 121.997 385.029 117.373 385.449C110.92 386.035 91.9636 374.827 69.489 352.767C29.2369 316.589 2.91227 255.221 0.225933 186.289C-2.42738 117.952 18.5294 58.3681 49.5399 25.5386C67.1384 5.45363 95.166 -5.64899 139.616 2.9226C169.454 8.67404 202.361 22.7747 231.812 42.728C276.992 77.064 297.764 124.065 296.277 163.195C294.747 203.521 272.331 232.662 241.57 256.393Z" fill="#93C4A6"/>
</svg>
