<svg width="33" height="33" viewBox="0 0 33 33" fill="none" xmlns="http://www.w3.org/2000/svg">
<path d="M29.707 0.757812H28.0605V22.1623H29.707C30.5803 22.1623 31.4179 21.8154 32.0355 21.1978C32.653 20.5803 33 19.7427 33 18.8693V4.05081C33 3.17745 32.653 2.33987 32.0355 1.72231C31.4179 1.10475 30.5803 0.757813 29.707 0.757812ZM3.3629 22.1623H14.8884L13.0411 27.7077C12.8762 28.2026 12.8313 28.7296 12.91 29.2453C12.9888 29.761 13.1889 30.2506 13.4939 30.6737C13.7989 31.0969 14.2001 31.4416 14.6644 31.6794C15.1287 31.9171 15.6428 32.0412 16.1645 32.0413H16.5349L24.7675 23.0876V0.757812H6.65591L0.173615 14.9984L0.0698853 15.4808V18.8693C0.0698853 19.7427 0.416826 20.5803 1.03439 21.1978C1.65194 21.8154 2.48954 22.1623 3.3629 22.1623Z" />
</svg>
