<svg width="33" height="32" viewBox="0 0 33 32" fill="none" xmlns="http://www.w3.org/2000/svg">
<path d="M3.29302 31.2837H4.93952V9.87919H3.29302C2.41966 9.87919 1.58207 10.2261 0.964508 10.8437C0.346951 11.4612 7.62939e-06 12.2988 7.62939e-06 13.1722V27.9907C7.62939e-06 28.864 0.346951 29.7016 0.964508 30.3192C1.58207 30.9368 2.41966 31.2837 3.29302 31.2837ZM29.6371 9.87919H18.1116L19.9589 4.33378C20.1238 3.83887 20.1687 3.31187 20.09 2.7962C20.0112 2.28053 19.8111 1.79095 19.5061 1.36777C19.2011 0.944584 18.7999 0.599915 18.3356 0.36215C17.8713 0.124386 17.3572 0.000326157 16.8355 0.000190735H16.4651L8.23253 8.95386V31.2837H26.3441L32.8264 17.0431L32.9301 16.5607V13.1722C32.9301 12.2988 32.5832 11.4612 31.9656 10.8437C31.3481 10.2261 30.5105 9.87919 29.6371 9.87919Z" />
</svg>
