<svg width="30" height="31" viewBox="0 0 30 31" fill="none" xmlns="http://www.w3.org/2000/svg">
<path opacity="0.5" d="M1.63882 17.9109C1.82315 14.3671 2.63771 11.0738 2.67856 8.32814C2.72008 5.52952 2.07041 3.47625 0.859983 2.5527C0.273338 2.13277 -0.177866 1.8585 0.0697768 1.51061C0.415376 1.02503 2.33333 0.373181 5.21949 0.125773C10.1561 -0.51684 16.0168 1.32167 20.9895 5.26333C25.9187 9.17165 28.8226 14.2038 29.2566 18.335C29.6044 20.7666 28.7005 23.3882 25.4396 25.9775C23.2507 27.7159 20.2952 29.1683 17.1382 30.0288C12.035 31.1257 7.50975 29.7602 4.8674 27.3125C2.14411 24.7901 1.45266 21.4797 1.63882 17.9109Z" fill="#93C4A6"/>
</svg>
