<svg width="328" height="423" viewBox="0 0 328 423" fill="none" xmlns="http://www.w3.org/2000/svg">
<path opacity="0.5" d="M72.2923 125.756C108.477 103.744 146.431 89.6312 173.781 71.5708C201.658 53.161 217.536 32.9475 218.504 14.8009C218.7 6.19215 218.371 -0.101542 223.467 0.00113955C230.579 0.143892 249.904 14.6737 271.752 41.4709C311.285 85.8304 332.565 155.986 327.134 231.528C321.739 306.417 291.644 368.891 253.824 400.951C232.185 420.732 200.255 429.447 152.793 414.702C120.932 404.807 86.7353 385.429 57.0204 360.084C11.8871 317.137 -5.07701 263.331 1.29194 220.815C7.85364 176.998 35.8478 147.919 72.2923 125.756Z" fill="#93C4A6"/>
</svg>
