<svg width="47" height="36" viewBox="0 0 47 36" fill="none" xmlns="http://www.w3.org/2000/svg">
<path opacity="0.5" d="M18.297 31.3166C14.7777 28.2329 12.0323 24.701 9.22231 22.4174C6.35807 20.0899 3.70147 19.0865 1.757 19.5861C0.843259 19.8508 0.190915 20.0942 0.0328083 19.5537C-0.187922 18.7995 0.702689 16.2812 2.80249 13.0905C6.16684 7.45373 12.8548 2.88545 20.9959 0.953565C29.0669 -0.960466 36.6485 0.140145 41.2809 3.06304C44.0829 4.68778 46.0598 7.76381 46.0792 13.2544C46.0926 16.9402 45.184 21.1864 43.4981 25.1581C40.4682 31.3382 35.3602 34.9097 30.6685 35.6479C25.8333 36.4089 21.8408 34.4226 18.297 31.3166Z" fill="#FF8C61"/>
</svg>
