<svg width="244" height="72" viewBox="0 0 244 72" fill="none" xmlns="http://www.w3.org/2000/svg">
<path d="M29.5123 35.7514C29.5123 34.5576 29.096 33.533 28.2681 32.6776C27.4379 31.8177 26.4248 31.3877 25.2309 31.3877C24.0348 31.3877 23.0079 31.8177 22.1479 32.6776C21.2926 33.533 20.8672 34.5576 20.8672 35.7514C20.8672 36.9544 21.32 37.9539 22.2303 38.752C23.1451 39.5457 24.2017 39.9413 25.4047 39.9413H28.3139V49.7757H4.95836C3.30481 47.8431 2.06293 45.6361 1.23502 43.1524C0.411672 40.6709 0 38.2031 0 35.7514C0 32.2751 0.654101 29.0137 1.96688 25.9628C3.27736 22.9141 5.08643 20.2337 7.39179 17.9215C9.70173 15.6115 12.3822 13.8002 15.4331 12.4874C18.4886 11.1769 21.7546 10.5205 25.2309 10.5205C28.7072 10.5205 31.9549 11.1769 34.9738 12.4874C37.9973 13.8002 40.6663 15.6115 42.9785 17.9215C45.2885 20.2337 47.0998 22.9141 48.4126 25.9628C49.7231 29.0137 50.3795 32.2751 50.3795 35.7514V46.7019C50.3795 50.1782 49.7231 53.4304 48.4126 56.4539C47.0998 59.4729 45.2885 62.135 42.9785 64.4404C40.6663 66.7503 37.9973 68.5616 34.9738 69.8744C31.9549 71.1918 28.7072 71.8504 25.2309 71.8504H0V50.9741H29.5123C29.5123 48.2982 29.5123 45.7047 29.5123 43.1981C29.5123 40.6869 29.5123 38.2031 29.5123 35.7514Z" fill="#FF8C61"/>
<path d="M80.6484 11.9751H101.863V36.5199C101.863 40.632 101.163 44.241 99.7683 47.3514C98.3709 50.4573 96.4749 53.0485 94.0781 55.1274C91.6858 57.2087 89.0054 58.7639 86.0368 59.7931C83.0727 60.8177 80.0492 61.33 76.9708 61.33C73.8353 61.33 70.7866 60.8177 67.8226 59.7931C64.8585 58.7639 62.1781 57.2087 59.7813 55.1274C57.389 53.0485 55.493 50.4573 54.091 47.3514C52.6936 44.241 51.9961 40.632 51.9961 36.5199V11.9751H73.2109V35.6691C73.2109 37.1511 73.6089 38.2649 74.4093 39.0082C75.2075 39.7469 76.0606 40.1151 76.9708 40.1151C77.8857 40.1151 78.7273 39.7469 79.4958 39.0082C80.2642 38.2649 80.6484 37.1511 80.6484 35.6691V11.9751Z" fill="#FF8C61"/>
<path d="M125.98 59.9577C121.589 59.9577 117.696 59.1481 114.307 57.5243C110.915 55.8959 108.262 53.4579 106.348 50.2057C104.438 46.9557 103.484 42.8779 103.484 37.9744V0H124.525V11.9751H139.153V31.8176H124.525V38.9167C124.525 39.6623 124.896 40.0328 125.641 40.0328H139.153V59.9577H125.98Z" fill="#FF8C61"/>
<path d="M170.363 12H191.578V36.5448C191.578 40.6501 190.876 44.2568 189.474 47.3672C188.077 50.473 186.181 53.0665 183.784 55.1523C181.392 57.2336 178.716 58.7888 175.752 59.818C172.788 60.8426 169.764 61.3549 166.686 61.3549C163.543 61.3549 160.492 60.8426 157.528 59.818C154.564 58.7888 151.884 57.2336 149.487 55.1523C147.095 53.0665 145.201 50.473 143.806 47.3672C142.408 44.2568 141.711 40.6501 141.711 36.5448V12H162.917V35.694C162.917 37.176 163.315 38.2898 164.115 39.0331C164.913 39.7718 165.771 40.14 166.686 40.14C167.594 40.14 168.433 39.7718 169.201 39.0331C169.974 38.2898 170.363 37.176 170.363 35.694V12Z" fill="#93C4A6"/>
<path d="M193.19 71.8754V35.9501C193.19 32.4143 193.845 29.121 195.157 26.07C196.468 23.0145 198.291 20.3203 200.628 17.9829C202.97 15.6479 205.68 13.8251 208.761 12.5123C211.839 11.2018 215.119 10.5454 218.595 10.5454C222.131 10.5454 225.424 11.2018 228.475 12.5123C231.524 13.8251 234.216 15.6479 236.553 17.9829C238.895 20.3203 240.72 23.0145 242.033 26.07C243.343 29.121 244 32.4143 244 35.9501C244 39.4265 243.343 42.7061 242.033 45.7845C240.72 48.8652 238.895 51.5731 236.553 53.9082C234.216 56.2455 231.524 58.0706 228.475 59.388C225.424 60.6985 222.131 61.3549 218.595 61.3549H215.43V40.3047H218.595C219.789 40.3047 220.814 39.8793 221.669 39.0239C222.529 38.1709 222.959 37.1463 222.959 35.9501C222.959 34.7494 222.529 33.7225 221.669 32.8672C220.814 32.0141 219.789 31.5864 218.595 31.5864C217.399 31.5864 216.372 32.0141 215.512 32.8672C214.657 33.7225 214.231 34.7494 214.231 35.9501V71.8754H193.19Z" fill="#93C4A6"/>
<mask id="mask0_3465_9921" style="mask-type:luminance" maskUnits="userSpaceOnUse" x="212" y="28" width="16" height="14">
<path d="M212.194 28.4038H227.417V41.2846H212.194V28.4038Z" fill="white"/>
</mask>
<g mask="url(#mask0_3465_9921)">
<mask id="mask1_3465_9921" style="mask-type:luminance" maskUnits="userSpaceOnUse" x="210" y="25" width="19" height="19">
<path d="M224.24 43.121L210.562 39.1736L214.509 25.4946L228.188 29.4421L224.24 43.121Z" fill="white"/>
</mask>
<g mask="url(#mask1_3465_9921)">
<mask id="mask2_3465_9921" style="mask-type:luminance" maskUnits="userSpaceOnUse" x="210" y="25" width="19" height="19">
<path d="M224.24 43.121L210.562 39.1736L214.509 25.4946L228.188 29.4421L224.24 43.121Z" fill="white"/>
</mask>
<g mask="url(#mask2_3465_9921)">
<path d="M218.61 28.9917C220.284 29.1014 221.828 29.4788 223.127 29.52C224.451 29.5634 225.432 29.3027 225.887 28.7904C226.095 28.5434 226.233 28.3513 226.393 28.4611C226.617 28.612 226.896 29.4422 226.967 30.6841C227.195 32.8088 226.235 35.3085 224.291 37.4081C222.367 39.4893 219.941 40.6923 217.979 40.8432C216.824 40.9713 215.598 40.5596 214.422 39.1371C213.635 38.1834 212.993 36.9026 212.636 35.5395C212.195 33.3394 212.913 31.4091 214.111 30.2953C215.346 29.1472 216.924 28.8796 218.61 28.9917Z" fill="#F5F3EF"/>
</g>
</g>
</g>
</svg>
