<svg width="122" height="36" viewBox="0 0 122 36" fill="none" xmlns="http://www.w3.org/2000/svg">
<path d="M14.7561 17.8757C14.7561 17.2788 14.548 16.7665 14.1341 16.3388C13.719 15.9088 13.2124 15.6938 12.6155 15.6938C12.0174 15.6938 11.5039 15.9088 11.074 16.3388C10.6463 16.7665 10.4336 17.2788 10.4336 17.8757C10.4336 18.4772 10.66 18.9769 11.1151 19.376C11.5726 19.7728 12.1009 19.9707 12.7024 19.9707H14.1569V24.8879H2.47918C1.65241 23.9216 1.03147 22.8181 0.617508 21.5762C0.205836 20.3354 0 19.1016 0 17.8757C0 16.1375 0.327051 14.5069 0.983438 12.9814C1.63868 11.4571 2.54322 10.1168 3.6959 8.96073C4.85087 7.80576 6.19109 6.90008 7.71656 6.24369C9.24432 5.58845 10.8773 5.26025 12.6155 5.26025C14.3536 5.26025 15.9774 5.58845 17.4869 6.24369C18.9987 6.90008 20.3332 7.80576 21.4893 8.96073C22.6442 10.1168 23.5499 11.4571 24.2063 12.9814C24.8615 14.5069 25.1897 16.1375 25.1897 17.8757V23.3509C25.1897 25.0891 24.8615 26.7152 24.2063 28.227C23.5499 29.7364 22.6442 31.0675 21.4893 32.2202C20.3332 33.3752 18.9987 34.2808 17.4869 34.9372C15.9774 35.5959 14.3536 35.9252 12.6155 35.9252H0V25.4871H14.7561C14.7561 24.1491 14.7561 22.8524 14.7561 21.5991C14.7561 20.3435 14.7561 19.1016 14.7561 17.8757Z" fill="white"/>
<path d="M40.3242 5.98755H50.9316V18.2599C50.9316 20.316 50.5817 22.1205 49.8842 23.6757C49.1855 25.2286 48.2375 26.5243 47.0391 27.5637C45.8429 28.6043 44.5027 29.3819 43.0184 29.8965C41.5364 30.4088 40.0246 30.665 38.4854 30.665C36.9176 30.665 35.3933 30.4088 33.9113 29.8965C32.4293 29.3819 31.0891 28.6043 29.8906 27.5637C28.6945 26.5243 27.7465 25.2286 27.0455 23.6757C26.3468 22.1205 25.998 20.316 25.998 18.2599V5.98755H36.6055V17.8345C36.6055 18.5756 36.8044 19.1325 37.2047 19.5041C37.6038 19.8735 38.0303 20.0576 38.4854 20.0576C38.9428 20.0576 39.3637 19.8735 39.7479 19.5041C40.1321 19.1325 40.3242 18.5756 40.3242 17.8345V5.98755Z" fill="white"/>
<path d="M62.99 29.9789C60.7944 29.9789 58.8481 29.574 57.1534 28.7621C55.4575 27.9479 54.131 26.7289 53.1739 25.1028C52.219 23.4779 51.7422 21.439 51.7422 18.9872V0H62.2627V5.98754H69.5767V15.9088H62.2627V19.4584C62.2627 19.8311 62.4479 20.0164 62.8207 20.0164H69.5767V29.9789H62.99Z" fill="white"/>
<path d="M85.1816 6H95.7891V18.2724C95.7891 20.325 95.438 22.1284 94.737 23.6836C94.0383 25.2365 93.0903 26.5333 91.8919 27.5762C90.6958 28.6168 89.3578 29.3944 87.8758 29.909C86.3938 30.4213 84.882 30.6774 83.3428 30.6774C81.7716 30.6774 80.2462 30.4213 78.7641 29.909C77.2821 29.3944 75.9419 28.6168 74.7435 27.5762C73.5473 26.5333 72.6005 25.2365 71.9029 23.6836C71.2042 22.1284 70.8555 20.325 70.8555 18.2724V6H81.4583V17.847C81.4583 18.588 81.6573 19.1449 82.0575 19.5166C82.4566 19.8859 82.8854 20.07 83.3428 20.07C83.7968 20.07 84.2165 19.8859 84.6007 19.5166C84.9872 19.1449 85.1816 18.588 85.1816 17.847V6Z" fill="#93C4A6"/>
<path d="M96.5957 35.9377V17.9751C96.5957 16.2072 96.9228 14.5605 97.5791 13.035C98.2344 11.5072 99.1458 10.1602 100.314 8.99147C101.485 7.82393 102.841 6.91253 104.381 6.25614C105.92 5.6009 107.56 5.27271 109.298 5.27271C111.066 5.27271 112.713 5.6009 114.238 6.25614C115.762 6.91253 117.108 7.82393 118.277 8.99147C119.448 10.1602 120.361 11.5072 121.017 13.035C121.672 14.5605 122 16.2072 122 17.9751C122 19.7132 121.672 21.3531 121.017 22.8923C120.361 24.4326 119.448 25.7865 118.277 26.9541C117.108 28.1228 115.762 29.0353 114.238 29.694C112.713 30.3492 111.066 30.6774 109.298 30.6774H107.715V20.1524H109.298C109.895 20.1524 110.407 19.9397 110.835 19.512C111.265 19.0854 111.48 18.5731 111.48 17.9751C111.48 17.3747 111.265 16.8613 110.835 16.4336C110.407 16.007 109.895 15.7932 109.298 15.7932C108.7 15.7932 108.187 16.007 107.757 16.4336C107.329 16.8613 107.116 17.3747 107.116 17.9751V35.9377H96.5957Z" fill="#93C4A6"/>
<mask id="mask0_3465_9921" style="mask-type:luminance" maskUnits="userSpaceOnUse" x="106" y="14" width="8" height="7">
<path d="M106.098 14.2019H113.709V20.6423H106.098V14.2019Z" fill="white"/>
</mask>
<g mask="url(#mask0_3465_9921)">
<mask id="mask1_3465_9921" style="mask-type:luminance" maskUnits="userSpaceOnUse" x="105" y="12" width="10" height="10">
<path d="M112.121 21.5605L105.281 19.5868L107.255 12.7473L114.094 14.7211L112.121 21.5605Z" fill="white"/>
</mask>
<g mask="url(#mask1_3465_9921)">
<mask id="mask2_3465_9921" style="mask-type:luminance" maskUnits="userSpaceOnUse" x="105" y="12" width="10" height="10">
<path d="M112.121 21.5605L105.281 19.5868L107.255 12.7473L114.094 14.7211L112.121 21.5605Z" fill="white"/>
</mask>
<g mask="url(#mask2_3465_9921)">
<path d="M109.305 14.496C110.142 14.5508 110.914 14.7395 111.564 14.7601C112.226 14.7818 112.717 14.6515 112.944 14.3953C113.048 14.2718 113.117 14.1758 113.197 14.2307C113.309 14.3061 113.448 14.7212 113.484 15.3422C113.598 16.4045 113.118 17.6544 112.146 18.7042C111.184 19.7448 109.971 20.3463 108.99 20.4217C108.412 20.4858 107.799 20.2799 107.212 19.5687C106.818 19.0918 106.497 18.4514 106.319 17.7699C106.098 16.6698 106.457 15.7047 107.056 15.1478C107.674 14.5737 108.463 14.4399 109.305 14.496Z" fill="#FF8C61"/>
</g>
</g>
</g>
</svg>
